<svg width="18" height="37" viewBox="0 0 18 37" fill="none" xmlns="http://www.w3.org/2000/svg">
<path d="M17.8078 9.37889V2.93198C17.8078 1.31541 16.6579 0 15.2443 0H2.78721C1.374 0 0.224068 1.31541 0.224068 2.93198V5.44014H0V7.05231H0.224068V8.35277H0V11.3019H0.224068V12.0348H0V14.9839H0.224068V34.068C0.224068 35.685 1.374 37 2.78721 37H15.2443C16.6579 37 17.8078 35.685 17.8078 34.068V14.0501H18V9.37889H17.8078ZM17.0392 9.37889V14.0501V34.068C17.0392 35.1997 16.234 36.1207 15.2443 36.1207H2.78721C1.79792 36.1207 0.99274 35.1997 0.99274 34.068V2.93198C0.99274 1.7999 1.79792 0.879285 2.78721 0.879285H4.62818C4.62818 1.10922 4.62818 1.33344 4.62818 1.45654C4.62818 2.09666 5.1182 2.61983 5.71777 2.61983H12.2822C12.8822 2.61939 13.2342 2.09578 13.2342 1.4561C13.2342 1.3286 13.2342 1.1123 13.2342 0.879285H15.2443C16.234 0.879285 17.0392 1.7999 17.0392 2.93198V9.37889Z" fill="white"/>
</svg>
